<svg xmlns="http://www.w3.org/2000/svg" viewBox="75 5 550 550"><path d="M326.17 339.02c-18.188 29.52-31.969 58.168-31.969 58.168-2.05-13.363-.36-37.23 17.891-66.848 27.406-44.453 91.699-92.418 91.699-92.418s-50.223 56.652-77.621 101.1zm219.64-143.28V49.31H442.37v57.816l-92.367-79.129-280 239.88h92.973v264.12h92.52c-6.352-50.484-2.066-92.488 17.961-122.62-31.246-30.168-39.809-74.055-3.047-125.88 41.805-58.945 177.81-89.02 177.81-89.02-.008 0 16.582 138.29-25.234 197.24-33.836 47.711-74.027 56.945-110.46 42.895 0 0-25.48 21.508-14.402 97.383h237.82v-264.12h94.062z"/></svg>