<svg xmlns="http://www.w3.org/2000/svg" viewBox="100 35 500 500"><path fill-rule="evenodd" d="M437.11 229.69c4.664-.75 8.586-1.121 11.762-1.121 5.785-.375 9.152 1.121 10.078 4.48 1.305 2.985-.746 6.16-6.16 9.52-3.735 2.234-7.934 3.734-12.602 4.48-.934.184-1.68.286-2.238.286-.93.558-1.864 1.3-2.801 2.234-3.543 4.105-6.899 8.863-10.078 14.281l-4.48 11.484-3.641 15.113c-1.496 7.656-3.633 21.934-6.434 42.84-1.863 10.832-4.664 20.25-8.398 28.281-2.055 4.105-5.137 8.965-9.239 14.566l-6.433 7-11.484 8.398-12.88 6.434c-10.632 3.922-17.077 6.066-19.32 6.434-13.624 3.734-28.28 5.414-43.96 5.039-2.985.183-6.442-.559-10.36-2.239-4.855-2.425-6.905-5.312-6.163-8.675.75-3.176 3.265-5.23 7.566-6.165 5.035-.183 8.215-.375 9.516-.566a163.005 163.005 0 0 0 39.199-4.2 7967.28 7967.28 0 0 1 16.8-5.312l10.923-5.601 3.078-2.239c3.367-2.054 5.32-3.457 5.886-4.199l5.313-4.761c3.922-5.415 6.352-9.153 7.285-11.2 3.543-7.101 6.25-15.214 8.113-24.358 3.922-20.352 7-34.54 9.239-42.566 3.922-13.066 8.215-22.488 12.879-28.273 2.984-4.485 6.254-8.122 9.8-10.922-11.198.933-25.015 1.023-41.433.28-19.602-.745-34.352-.464-44.238.84-13.254 1.68-25.016 5.231-35.281 10.642-10.266 5.601-18.48 12.035-24.641 19.312-11.945 13.625-20.066 28.37-24.36 44.238-3.367 13.066-4.296 24.543-2.8 34.44 0 1.489.281 3.633.836 6.434.566 1.305 1.12 3.168 1.687 5.602.93 2.613 1.586 4.664 1.961 6.164 6.16-11.574 13.254-22.31 21.281-32.2 13.816-17.366 28.375-31.085 43.68-41.163 8.398-5.035 15.586-8.121 21.566-9.234h4.2l-3.368 2.515c-9.7 7.656-15.586 12.32-17.633 14-14.375 13.816-26.602 28.184-36.68 43.121-9.336 13.434-16.984 26.785-22.965 40.035-.184.375-.371.84-.559 1.399-3.734 8.964-6.44 17.176-8.12 24.64-2.614 11.017-3.266 20.817-1.962 29.399.372 2.054.465 4.386.282 7-.375 3.734-1.965 6.253-4.766 7.558-3.168 1.5-6.16.469-8.96-3.074-2.055-2.8-3.36-5.602-3.923-8.398-1.68-10.832-.933-23.152 2.239-36.965 2.425-9.704 6.066-19.32 10.922-28.836a69.625 69.625 0 0 1 1.96-3.641l-1.12-.84c-1.305-2.055-2.895-5.129-4.762-9.238-.75-.746-1.496-2.801-2.239-6.16l-2.234-6.715c-2.984-10.832-2.984-23.902 0-39.2 3.73-18.483 11.945-35.374 24.633-50.68 6.719-8.585 16.152-16.515 28.281-23.8 12.137-6.715 25.766-11.105 40.887-13.16 12.312-1.5 27.898-1.871 46.762-1.121 23.5.379 40.207-.176 50.102-1.668zm31.355-97.441h-4.48l-1.399.285-.84.274c-1.496.933-2.613 2.8-3.36 5.601-1.12 2.613-1.398 7.375-.839 14.285.566 5.23.934 12.414 1.121 21.56-.558 6.343-3.633 7.933-9.234 4.76l-10.922-7c-7.84-5.226-20.352-13.53-37.52-24.913l-41.72-29.121c-3.359-2.43-6.066-4.848-8.12-7.281-2.426 2.43-5.313 4.847-8.68 7.28l-41.434 29.122c-6.352 4.664-18.855 12.969-37.52 24.914l-136.92 85.688a6222.94 6222.94 0 0 0-15.398 8.96l7.281-1.679c4.856-.566 8.68-1.031 11.48-1.398 1.5-.375 6.352-.567 14.566-.567 7.649.567 13.535 1.125 17.633 1.688l10.641 2.238c4.664 1.3 8.586 3.168 11.762 5.602 4.672 2.8 7.84 6.898 9.52 12.312 1.68 4.664 2.8 9.61 3.367 14.84.558 7.464.836 17.449.836 29.96l3.078 116.2c0 12.138-2.895 18.106-8.68 17.923-3.36 0-5.879-2.43-7.558-7.282-.934-3.168-1.399-6.628-1.399-10.359l-2.238-83.164c1.305-30.613 1.68-51.43 1.121-62.434-.559-8.964-2.703-14.75-6.441-17.359-2.235-1.863-7.649-4.105-16.234-6.718l-16.801-2.801c-3.176-.371-7.567-.84-13.164-1.399-6.715-.183-12.312-.093-16.801.286-4.48.183-8.399.37-11.762.558-3.543 0-4.387-1.5-2.52-4.484 5.23-4.473 12.977-10.633 23.238-18.473l132.16-92.125c16.055-10.633 28.375-19.035 36.965-25.2l41.16-28.835c2.238-1.863 4.57-3.266 7-4.2 8.586-4.847 16.43-4.847 23.52 0 2.05.934 4.297 2.337 6.719 4.2l41.16 28.836c12.695 8.586 22.77 15.5 30.238 20.727l-.567-7c0-6.727.657-11.95 1.965-15.688.746-2.801 2.235-5.504 4.48-8.113 2.427-2.43 4.946-4.11 7.56-5.04l1.964-1.12 6.715-1.4c2.8 0 4.95.185 6.441.567 7.657.559 14.746 1.86 21.281 3.914l9.52 3.36c4.297 2.238 7.371 4.574 9.238 7 2.426 3.176 4.387 8.125 5.88 14.84l1.12 12.039c0 7.281-.285 15.77-.84 25.48-.558 9.52-1.304 16.152-2.238 19.879v.285c10.086 6.715 22.688 15.398 37.801 26.035l28.84 21.836c9.336 7.102 16.613 12.977 21.84 17.641.371 2.984-.934 4.672-3.922 5.04-2.8-.372-4.855-.56-6.164-.56l-19.035-.285c-2.8 0-7.375.47-13.719 1.399l-16.238 2.8c-8.398 2.43-13.898 4.672-16.516 6.72-3.55 2.425-5.602 8.21-6.164 17.358-.559 11.387-.281 32.2.84 62.434l-1.965 83.164c0 3.73-.559 7.184-1.68 10.36-1.496 4.847-3.922 7.28-7.28 7.28-5.786.184-8.68-5.785-8.68-17.921L504.6 329.1c0-12.32.282-22.305.84-29.961.93-6.352 2.051-11.2 3.36-14.56 2.238-5.601 5.504-9.703 9.8-12.32 3.36-2.43 7.282-4.199 11.762-5.312.375-.191 3.922-.941 10.641-2.238 4.297-.559 10.168-1.121 17.641-1.688 8.399 0 13.25.184 14.56.567 5.785.37 11.57 1.304 17.358 2.8-4.48-2.613-9.699-5.695-15.68-9.234l-66.078-40.602c-3.543-1.5-5.039-3.64-4.48-6.441l-.84-52.086c-.37-3.543-1.023-6.899-1.96-10.074-.75-4.11-1.774-6.727-3.079-7.84l-1.687-1.399-3.078-1.12c-1.305-.75-3.633-1.587-7-2.52-7.297-1.7-13.36-2.637-18.215-2.82z"/></svg>