<svg xmlns="http://www.w3.org/2000/svg" viewBox="0 0 500 500" xml:space="preserve"><path fill="#52B986" d="M159.3 215c-4.6 28.2.2 55.2 6.6 82.1 2.3 10.2 5.3 20.2 7.9 30.2 21-1 23 .5 29 20.3 4.4 14.3 8.8 28.7 13 43 1.6 5-.5 8.8-4.7 10-3.9 1.2-7.5-1-9.3-5.4l-1-3.3c-4.8-15.4-9.6-30.9-14.2-46.4-1.3-4.3-3.6-5-8-2.8 1.6 5.4 3.1 10.8 4.8 16.1 4 12.3 8.1 24.7 12.3 37 1.7 4.9.6 8.9-3.3 10.7-4 1.8-8.6 0-10.4-4.9-4-10.7-7.5-21.7-11.1-32.6-2.5-7.4-4.7-15-7-22.5-4.5.5-4.4 3-3.4 6l14.2 44.3c.5 1.8 1.2 3.5 1.6 5.3 1.2 4.6-.7 8.2-4.8 9.5-4 1.3-7.8-.6-9.4-5.2-2.7-8-5.2-16.1-7.8-24.2l-8-25.8c-3.6-11.3-1-17.8 9.5-23.6l3.5-1.9-1.8-6.6c-7.8-27.8-14-55.8-15-84.9-2.3-65.2 44-101.2 87.6-111.6l6.3-1.4c4.5-.8 8 1.3 9 5.2 1 4-1.2 7.8-5.6 9.1-5.3 1.6-10.8 2.5-16 4.4-25.6 9-46 24.6-57.9 49.6-3 6.3-4.4 13.2-6.6 20.3z"/><path fill="#52B986" d="M298.3 395c.1.6.2 1 .1 2.2-.2 2-.5 3.4-.4 4.7a42.2 42.2 0 0 1-7 28.1c-2.8 4-7.5 7-12 9.7-1.2.7-5.2-1-6.4-2.7-1.9-2.7.3-4.8 2.7-7 3.5-3.3 8.4-7.2 8.9-11.4 1.2-10 1.5-20.7-.2-30.7-3.2-18-11.5-34.6-18.6-51.5-6.9-16.4-15.6-32-18.3-50.3-1.7-11.3 1-21.5 3.4-31.9 3.3-14.9 12.3-27.4 19.3-40.8 7.7-15 15.6-30 22.5-45.5 6-13.4 11-27.4 16.1-41.2 1.7-4.6 2.1-9-2.4-13.2-10.7-9.9-13.3-22.8-11.1-36.5 1.9-12 8.6-21.8 18.1-29 9.8-7.3 20.8-9.8 32.3-3.4l9 5.2-.1.4c.3 1.2.4 2.3 1 3a38 38 0 0 1 6.7 28.8c-1 5.6-4 11-6 16l-.2-5.7c0-.1 0-.3.3-.5.4-.7.5-1.1.6-2 .2-1.7.4-3.2 1-4.9 0-1.4 0-2.7-.2-4.4-.2-2-.4-3.7-.3-5.7 0-5.8-1-10.8-6.7-13.9-.7-.8-1.1-1.6-1.7-2.6-.5-.8-1-1.2-1.5-1.6v-.4c-.7-1.6-1.2-3-2.1-4.1-.6-.7-1.8-.7-2.7-1-.1.9-.5 1.9-.2 2.6.3.9 1.3 1.5 1.9 2.4v.9l.8 1.1.2 1c.7 1.2 1.4 2 2.1 3v.5c.5 1 1 1.6 1.5 2.4.3.7.5 1.3.4 2 0 2.1 0 4 .4 5.6 2.9 9 1.2 17.4-3.6 25.4-1 1.5-1.2 3.3-1.8 5l-.3.1c-1 1.2-1.7 2.4-2.5 3.6 0 .1-.1.2-.4.3l-1.4 2c-.6.8-1 1.4-1.8 2l-3.1 2.4 1.4 1.5c1-1.3 2-2.5 3.3-3.8.8-.2 1.2-.2 2-.2 3.5-.1 5.6-1.6 5.7-5.4.3-.4.5-.6 1.2-.8a29 29 0 0 0 2.8-4.1c.2-.5.4-.7 1.1-.8 1.3 0 2.2-.2 3 .1-2 3.6-4 6.9-6.2 10.2-.2.4-.2.6-.1 1v.5c-.2.3-.4.6-1.3 1-7.5 4.2-15 7-22.8 8.5-1.6.3-3.6 1.7-4 3-3 7.8-5.4 15.7-8.4 23.4-6.3 16-12.3 32.3-19.6 47.8-8.7 18.6-19 36.5-28.2 55a54.4 54.4 0 0 0-5.6 35.8c2.4 10.6 6.5 21 10.6 31 6 14.8 13.2 29 18.8 43.9 3.6 9.7 5.3 20.1 8 30.2.3 1.4 1.3 2.5 2 3.8z"/><path fill="#7EC42A" d="M223 438.3c13.3 5.8 27 9 41.7 8.7-6.6 18-19 20-32.6 15.6a47.3 47.3 0 0 1-30.7-26c-3.2-7-6.1-14.1-8.8-21.7 13.6 7.8 27 2.1 40.2.4 4-.6 8.2-1.3 12.4-1.3 11.1 0 18.8 6.2 21.6 17 .7 2.8.3 4.5-2.8 5.2a78 78 0 0 1-40.6-1c-4.1-1.3-7.7-2.2-11.4-3l-.5.2.7.5c0 .1-.2 0 0 .2l1.8.8.2.3 2 1.7s-.2 0 0 0c.4.1.7 0 1.2-.1a5 5 0 0 1 1.7 1.2c1.4.8 2.6 1.4 3.9 1.8v-.5m30.7 15.4 3.8-.6-.2-1H247v2.4l6.7-.8z"/><path fill="#52B986" d="M354.1 49.5c-2.8-1.4-5.8-3.2-8.8-4.9-11.5-6.4-22.5-3.9-32.3 3.4A44.8 44.8 0 0 0 295 77c-2.2 13.7.4 26.6 11 36.5 4.6 4.2 4.2 8.6 2.5 13.2-5 13.8-10 27.8-16 41.2-7 15.4-14.9 30.4-22.6 45.5-7 13.4-16 26-19.3 40.8-2.3 10.4-5 20.6-3.4 31.9 2.7 18.3 11.4 33.9 18.3 50.3 7 17 15.4 33.4 18.6 51.5 1.7 10 1.4 20.6.2 30.7-.5 4.2-5.4 8-9 11.4-2.3 2.2-4.5 4.3-2.6 7 1.2 1.7 5.2 3.4 6.5 2.7 4.4-2.6 9-5.6 12-9.7 5.8-8.2 7.7-18 7-28-.2-1.4 0-2.7.3-4.4 3.5 19.1-2.9 36.3-15.6 43.2-4.9 2.7-9 2.3-11.5-1.4-2.5-4-1.3-8.7 3.4-11.4 8.4-5 9.5-13.3 9.5-21.8-.1-15-4-29.3-9.6-43.1-8-19.4-16.6-38.5-24.6-58a75.3 75.3 0 0 1 2.6-61.5c6.8-15.2 15.9-29.3 22.9-44.3 9.1-19.6 17.3-39.6 25.7-59.5a186 186 0 0 0 6.3-18.4c.4-1.4 0-3.9-1-4.6-13.6-10-18.3-32.2-9.8-51.1 5.8-13 14.9-22.4 29.3-25.5 11-2.3 20.5.5 28.1 9.3z"/><path fill="#7EC42A" d="M176.2 89.8a45.7 45.7 0 0 1 18.8 41.5c-.5 10.2-8.5 13.8-15.8 7.2a45.3 45.3 0 0 1-15.4-41.2c1-7.4 5.2-9.6 12.4-7.5z"/><path fill="#52B986" d="M298.4 394.7c-.8-.9-1.8-2-2.2-3.4-2.6-10-4.3-20.5-8-30.2-5.5-14.9-12.7-29.1-18.7-43.8a194.3 194.3 0 0 1-10.6-31.1 54.4 54.4 0 0 1 5.6-35.9c9.2-18.4 19.5-36.3 28.2-54.9 7.3-15.5 13.3-31.7 19.6-47.8 3-7.7 5.4-15.6 8.3-23.4.5-1.3 2.5-2.7 4-3a73 73 0 0 0 22.6-8.3 26.9 26.9 0 0 1-18.4 9.2c-4.7.5-6.3 2.6-7.7 6.7a465 465 0 0 1-31.9 77.4c-6.2 11.5-12.8 23-19 34.5a75.6 75.6 0 0 0-1 72.7c9 18.5 16.4 37.9 23.8 57.1 2.8 7.5 3.7 15.8 5.4 24.2z"/><path fill="#7EC42A" d="M249.9 111.9c-5.7-4-7.7-10.3-9.2-16.6a59 59 0 0 1 3.1-38 38 38 0 0 1 7.1-10.7c7.3-7.7 17-7 22.7 2 10.4 16.4 9.8 33.8 2.8 51.1a37 37 0 0 1-8.9 12.4c-5.5 5.2-10.5 5-16.9.3 1.5 0 3-.2 4.2.3 6 2.3 10.3.1 13.8-4.6 1.6-2.3 3-4.7 4.3-7a50.2 50.2 0 0 0 1.5-47.3c-2.5-5.8-6.7-9.3-12.7-9.7-6.2-.5-10.4 3.4-13.2 8.4a53 53 0 0 0-4.2 47.3c1.7 4.1 3.7 8 5.6 12z"/><path fill="#7EC42A" d="M225 78a54 54 0 0 1 2.8 38.3c-1.4 4.4-3.8 8.4-8.8 9.3-5 .8-8.7-2.3-11.2-6.1a54 54 0 0 1-7.1-49.8c2.8-8 8.9-9.5 15.6-4.4 0 .5-.3.7-.7.7-8.7-2.3-12.1-1.1-14 7.8-1.6 7.8-2 16.3-.8 24.2 1 6.5 4.2 13 7.7 18.7 1.8 3 6.3 6.4 9.7 6.4 5 0 7.4-5 8.4-9.9.8-3.5 1.6-7.2 1.3-10.8-.7-8-2-16.1-3.1-24.2l.1-.2z"/><path fill="#7EC42A" d="M150.3 122.7c8.6 6.1 14.2 14 15.4 24.3.3 2.7-1 6.7-2.9 8.1-1.7 1.2-6 .5-8.1-1a33 33 0 0 1-14.8-23.8c-1-7 3-10 10.4-7.6m-1.1 23c1.4 1.7 2.5 3.8 4.3 4.7 2.3 1.2 5.1 1.4 7.8 2a134 134 0 0 0 1.6-8c-1.7-8-6.2-14.2-13-18.4-1.6-1-4.5-1.7-5.7-1-1.4 1-2.5 4-2 5.6 1.8 5 4.4 9.7 7 15.2z"/><path fill="#52B986" d="M355.9 98.4c2-5.4 5-10.8 6-16.4a38 38 0 0 0-6.7-28.7c-.6-.8-.7-1.9-1-3.2 7.5 6.6 9.7 15.9 9.8 25.4a46.4 46.4 0 0 1-14.9 36c-.3.2-.3-.1-.3-.5l.2-.9a278.5 278.5 0 0 0 6.9-11.7z"/><path fill="#7EC42A" d="M216.5 65.6c2.9 3.8 5.6 7.8 8.4 12 0 .4 0 .5-.4.4-3.1-4-5.8-8-8.5-12l.5-.4z"/><path fill="#52B986" d="M349.1 67.2c6.6 12.7 3.8 24.5-4.6 35.8.2-1.6.5-3.4 1.4-5 4.8-7.9 6.5-16.2 3.6-25.3-.5-1.6-.4-3.5-.4-5.5zM357 74.8c-2.1-4.1-4.2-8.5-6.3-13.3 5.4 2.5 6.4 7.5 6.4 13.3zM347.2 56.3c-.9.1-1.7 0-2.8-.2-1-.8-1.9-1.4-2.2-2.3-.3-.7 0-1.7.2-2.6.9.3 2.1.3 2.7 1 1 1 1.4 2.5 2 4zM352.1 100c.7-2.4 2-4.8 3.3-7.4.3 1.5.4 3.1.5 5.3l-.6 1.6-3.2.4zM341.2 111a46 46 0 0 1 5.4-5c.3 3.4-1.8 4.9-5.4 5zM337.7 111c.4 0 .8 0 1 .2-.7 1.3-1.7 2.5-2.7 3.8l-1.4-1.5 3.1-2.4zM357.5 85c-.2-1-.3-2.2-.2-3.7.3.9.4 2.2.2 3.6zM343.8 103.2c-.4 1-1.1 2-2.2 3.3.5-1 1.2-2 2.2-3.3zM348.2 104.8c.5-1.1 1.4-2.4 2.5-3.8-.5 1.2-1.4 2.5-2.5 3.8zM345 59.2c.7.5 1.4 1.3 2.1 2.5a9.7 9.7 0 0 1-2-2.5zM341 107c-.1.5-.4 1-1 1.8 0-.5.4-1 1-1.7zM347.3 62.7c.3.3.7.9 1.2 1.9-.4-.3-.8-.9-1.2-1.9zM348.7 58.3c-.4-.2-.8-.6-1.3-1.4.3.2.8.6 1.3 1.4zM344.2 57c.1 0 .4.3.7.8-.3 0-.5-.2-.7-.7zM349 110.2l-.1.7c-.2 0-.2-.3 0-.7zM356 91.8c-.1-.2 0-.7.4-1.3.1.2 0 .6-.4 1.3z"/><path fill="#7EC42A" d="m253.4 453.9-6.3.6-.1-2.4h10.3l.2 1c-1.3.2-2.6.4-4.1.8z"/><path fill="#7EC42A" d="M221.2 437.5c.7.3 1 .6 1.5 1.2-1-.3-2.2-.9-3.6-1.7.6 0 1.2.1 2.1.5zM214.2 434.2c.5.1 1.2.6 2 1.3-.7-.1-1.3-.6-2-1.3zM212 432.2c.2 0 .2.3.2.5l-.7-.3.5-.2zM212.2 433c.4.1 1 .3 1.7.7-.4 0-.9-.2-1.7-.6zM216.2 436c0-.2.2-.3.7-.3 0 .2-.3.3-.7.2z"/><path fill="#7EC42A" d="M250 112c-2-4.1-4-8-5.7-12.2a53 53 0 0 1 4.2-47.3c2.8-5 7-8.9 13.2-8.4 6 .4 10.2 4 12.7 9.7 7.2 16 7.1 31.7-1.5 47.2a65.2 65.2 0 0 1-4.3 7c-3.5 4.8-7.9 7-13.8 4.7-1.2-.5-2.7-.4-4.3-.6l-.6-.1z"/><path fill="#7EC42A" d="m215.6 66 8.8 12c1.4 8.3 2.8 16.3 3.5 24.4.3 3.6-.5 7.3-1.3 10.8-1 4.8-3.5 9.9-8.4 9.9-3.4 0-7.9-3.3-9.7-6.4a51.6 51.6 0 0 1-7.7-18.7c-1.1-7.9-.8-16.4.8-24.2 1.9-9 5.3-10.1 14-7.8z"/><path fill="#7EC42A" d="M149 145.1c-2.4-4.8-5-9.5-6.8-14.5-.5-1.5.6-4.7 2-5.5 1.2-.8 4.1-.1 5.7.9a26.8 26.8 0 0 1 12.8 18.6c-6.9-.6.5 4.8-3.1 5.8-2-.8-4.6-1.7-5.6-3.5-1.4-2.5-2.8-2.6-5-1.8z"/><path fill="#7EC42A" d="M149 145.5c2.2-1.2 3.6-1.1 5 1.4 1 1.8 3.6 2.7 5.6 3.5 3.6-1-3.8-6.4 3-5.4-.2 2.5-.8 5-1.3 7.4-2.7-.6-5.5-.8-7.8-2-1.8-1-3-3-4.4-5z"/></svg>